<svg id="icon" stroke="none" xmlns="http://www.w3.org/2000/svg" viewBox="0 0 56.204 40.688"><title>Plug In</title><path d="M49.109,25.055l.984,0a.378.378,0,0,1,.347.271h.034l-.349-.894a.375.375,0,0,0-.325-.225H48.708v.452A.4.4,0,0,0,49.109,25.055Z" transform="translate(-1.67 -8.505)"/><path d="M48.633,23.559l-.341-.874a.375.375,0,0,0-.325-.225l-15.623,0a.365.365,0,0,0-.321.226l-.278.442,16.163-.038A.8.8,0,0,1,48.633,23.559Z" transform="translate(-1.67 -8.505)" /><path d="M50.493,25.451c0-.05-.036-.083-.053-.127a.378.378,0,0,0-.347-.271l-.984,0a.4.4,0,0,1-.4-.4v-.771a.808.808,0,0,0-.8-.8l-16.163.038-1.486,0a.8.8,0,0,0-.8.8L29.5,41.753a.8.8,0,0,0,.8.8l17.648-.042a.8.8,0,0,0,.8-.8l0-.771a.4.4,0,0,1,.4-.4l.984,0a.4.4,0,0,0,.4-.4Z" transform="translate(-1.67 -8.505)" style="opacity:0.5"/><rect x="30.685" y="30.914" width="10.768" height="3.825" rx="0.798" ry="0.798" transform="translate(1.658 60.468) rotate(-90.135)" /><path d="M32.539,22.394a2.4,2.4,0,0,0-2.4-2.388l-5.453.013a2.368,2.368,0,0,0-.42.044V20.02l-.138.073a2.383,2.383,0,0,0-1.02.541l-6,3.181A2.9,2.9,0,0,0,15.7,26.158l.009,4.036-4.28.01a9.8,9.8,0,0,0-9.762,9.8v6.927a2.258,2.258,0,1,0,4.516,0V40a5.277,5.277,0,0,1,5.257-5.282l4.279-.01.013,5.479a2.734,2.734,0,0,0,1.451,2.269l6.062,2.822a2.373,2.373,0,0,0,1.069.5l.01,0v0a2.362,2.362,0,0,0,.42.042l5.453-.013a2.4,2.4,0,0,0,2.388-2.4Z" transform="translate(-1.67 -8.505)" /><rect x="44.739" y="35.172" width="1.91" height="4.122" rx="0.319" ry="0.319" transform="translate(6.898 74.509) rotate(-90.135)" /><rect x="44.728" y="30.742" width="1.91" height="4.122" rx="0.319" ry="0.319" transform="translate(11.317 70.058) rotate(-90.135)" /><rect x="44.718" y="26.313" width="1.91" height="4.122" rx="0.319" ry="0.319" transform="translate(15.736 65.608) rotate(-90.135)" /><polygon points="50.68 39.373 49.298 39.373 49.298 33.851 54.822 33.851 54.822 15.038 49.472 15.038 49.472 9.515 50.854 9.515 50.854 13.658 56.204 13.658 56.204 35.231 50.68 35.231 50.68 39.373" /><path d="M36.991,17.131H23.741a.5.5,0,0,1-.5-.5V11.048a.5.5,0,0,1,.5-.5h13.25a.5.5,0,0,0,.5-.5V8.8c0-.276.186-.375.415-.22l8,5.4a.307.307,0,0,1,0,.552l-8,5.2c-.231.151-.419.049-.419-.227V17.631A.5.5,0,0,0,36.991,17.131Z" transform="translate(-1.67 -8.505)" /></svg>