<svg id="icon" stroke="none" viewBox="0 0 12.05336 11.76655" xmlns="http://www.w3.org/2000/svg">
 <g id="layer1" transform="translate(-101.32 -148.24)">
  <g id="g194" transform="matrix(.35278 0 0 -.35278 101.32 150.85)">
   <path id="path196" d="m0 0v-20.972c0-2.75 2.25-5 5-5h24.167c2.75 0 5 2.25 5 5v20.972z" />
  </g>
  <g id="g198" transform="matrix(.35278 0 0 -.35278 113.37 150.85)">
   <path id="path200" d="m0 0-2.451 6.196c-0.25 0.649-1.017 1.176-1.712 1.176l-25.982 0.01c-0.695 0-1.45-0.53-1.685-1.185l-2.337-6.195z" fill="currentColor"/>
  </g>
  <g id="g202" transform="matrix(.35278 0 0 -.35278 103.08 151.79)">
   <path id="path204" d="m0 0c-0.736 0-1.333-0.597-1.333-1.333 0-0.737 0.597-1.334 1.333-1.334s1.334 0.597 1.334 1.334c0 0.736-0.598 1.333-1.334 1.333m0-0.68c0.36 0 0.653-0.293 0.653-0.653s-0.293-0.653-0.653-0.653c-0.359 0-0.652 0.293-0.652 0.653s0.293 0.653 0.652 0.653" fill="currentColor"/>
  </g>
  <g id="g206" transform="matrix(.35278 0 0 -.35278 111.67 151.79)">
   <path id="path208" d="m0 0c-0.736 0-1.334-0.597-1.334-1.333 0-0.737 0.598-1.334 1.334-1.334s1.333 0.597 1.333 1.334c0 0.736-0.597 1.333-1.333 1.333m0-0.68c0.359 0 0.652-0.293 0.652-0.653s-0.293-0.653-0.652-0.653c-0.36 0-0.653 0.293-0.653 0.653s0.293 0.653 0.653 0.653" fill="currentColor"/>
  </g>
  <g id="g210" transform="matrix(.35278 0 0 -.35278 103.08 158.04)">
   <path id="path212" d="m0 0c-0.736 0-1.333-0.597-1.333-1.333 0-0.737 0.597-1.334 1.333-1.334s1.334 0.597 1.334 1.334c0 0.736-0.598 1.333-1.334 1.333m0-0.681c0.36 0 0.653-0.292 0.653-0.652s-0.293-0.653-0.653-0.653c-0.359 0-0.652 0.293-0.652 0.653s0.293 0.652 0.652 0.652" fill="currentColor"/>
  </g>
  <g id="g214" transform="matrix(.35278 0 0 -.35278 111.67 158.04)">
   <path id="path216" d="m0 0c-0.736 0-1.334-0.597-1.334-1.333 0-0.737 0.598-1.334 1.334-1.334s1.333 0.597 1.333 1.334c0 0.736-0.597 1.333-1.333 1.333m0-0.681c0.359 0 0.652-0.292 0.652-0.652s-0.293-0.653-0.652-0.653c-0.36 0-0.653 0.293-0.653 0.653s0.293 0.652 0.653 0.652" fill="currentColor"/>
  </g>
  <g id="g218" transform="matrix(.35278 0 0 -.35278 102.23 153.16)">
   <path id="path220" d="m0 0h0.774" fill="none" stroke="currentColor" stroke-miterlimit="10" stroke-width=".387"/>
  </g>
  <g id="g222" transform="matrix(.35278 0 0 -.35278 103.05 153.16)">
   <path id="path224" d="m0 0h6.961c1.094 0 1.98-0.896 1.98-2v-9.153c0-1.104-0.886-2-1.98-2h-7.732" fill="none" stroke="currentColor" stroke-dasharray="1.543, 1.543" stroke-miterlimit="10" stroke-width=".387"/>
  </g>
  <g id="g226" transform="matrix(.35278 0 0 -.35278 102.5 157.8)">
   <path id="path228" d="m0 0h-0.774" fill="none" stroke="currentColor" stroke-miterlimit="10" stroke-width=".387"/>
  </g>
 </g>
</svg>
