<svg id="icon" stroke="none" viewBox="0 0 11.448635 8.8106547" xmlns="http://www.w3.org/2000/svg">
 <g id="layer1" transform="translate(-100.86 -105.08)">
  <g id="g20" transform="matrix(.35278 0 0 -.35278 108.12 105.64)">
   <path id="path22" d="m0 0c-2e-3 0.875-0.719 1.589-1.594 1.586l-3.622-8e-3c-0.096 0-0.187-0.013-0.278-0.029l-1e-3 0.029-0.091-0.049c-0.257-0.063-0.487-0.189-0.678-0.36l-3.985-2.112c-0.518-0.274-0.936-0.972-0.935-1.557l7e-3 -2.681-2.843-6e-3c-3.583-9e-3 -6.492-2.932-6.484-6.512v-9.602c0-0.828 0.672-1.5 1.5-1.5s1.5 0.672 1.5 1.5v9.605c-4e-3 1.93 1.563 3.504 3.492 3.508l2.842 7e-3 9e-3 -3.639c1e-3 -0.586 0.432-1.261 0.964-1.508l4.026-1.874c0.203-0.164 0.443-0.282 0.71-0.33l7e-3 -4e-3v3e-3c0.091-0.016 0.183-0.028 0.278-0.028l3.622 9e-3c0.875 2e-3 1.589 0.719 1.587 1.594z" fill="currentColor"/>
  </g>
  <g id="g554" transform="matrix(.35278 0 0 -.35278 111.98 106.47)">
   <path id="path556" d="m0 0 0.653 1e-3c0.114 0 0.193-0.08 0.231-0.18h0.022l-0.231 0.594c-0.031 0.082-0.128 0.149-0.216 0.149h-0.726l1e-3 -0.3c0-0.146 0.12-0.264 0.266-0.264" fill="#aaa"/>
  </g>
  <g id="g558" transform="matrix(.35278 0 0 -.35278 111.87 106.12)">
   <path id="path560" d="m0 0-0.227 0.581c-0.031 0.082-0.127 0.148-0.215 0.148l-10.378 2e-3c-0.088 0-0.184-0.067-0.213-0.15l-0.185-0.294 10.737 0.025c0.214 1e-3 0.398-0.128 0.481-0.312"  fill="#aaa"/>
  </g>
  <g id="g562" transform="matrix(.35278 0 0 -.35278 112.31 106.56)">
   <path id="path564" d="m0 0c0 0.033-0.023 0.055-0.035 0.084-0.038 0.101-0.117 0.181-0.231 0.181l-0.653-2e-3c-0.146 0-0.266 0.118-0.266 0.264l-1e-3 0.301v0.212c-1e-3 0.078-0.019 0.15-0.049 0.216-0.083 0.184-0.267 0.313-0.482 0.312l-10.736-0.025-0.987-2e-3c-0.292 0-0.53-0.239-0.529-0.531l0.028-11.838c1e-3 -0.293 0.239-0.53 0.531-0.529l11.723 0.027c0.292 1e-3 0.53 0.239 0.529 0.532l-1e-3 0.512c0 0.146 0.118 0.265 0.264 0.266l0.654 1e-3c0.146 0 0.264 0.12 0.264 0.266z" fill="#ddd"/>
  </g>
  <g id="g566" transform="matrix(.35278 0 0 -.35278 108.48 107.22)">
   <path id="path568" d="m0 0 0.014-6.092c1e-3 -0.292 0.24-0.53 0.531-0.529l1.48 3e-3c0.292 1e-3 0.53 0.24 0.53 0.532l-0.015 6.092c-1e-3 0.292-0.24 0.53-0.531 0.529l-1.481-3e-3c-0.292-1e-3 -0.529-0.24-0.528-0.532" fill="currentColor"/>
  </g>
  <g id="g570" transform="matrix(.35278 0 0 -.35278 108.1 105.85)">
   <path id="path572" d="m0 0c-2e-3 0.875-0.719 1.589-1.594 1.586l-3.622-8e-3c-0.096 0-0.187-0.013-0.278-0.029l-1e-3 0.029-0.091-0.049c-0.257-0.063-0.487-0.189-0.678-0.36l-3.985-2.112c-0.518-0.274-0.936-0.972-0.935-1.557l7e-3 -2.681-2.843-6e-3c-3.583-9e-3 -6.492-2.932-6.484-6.512v-9.602c0-0.828 0.672-1.5 1.5-1.5s1.5 0.672 1.5 1.5v9.605c-4e-3 1.93 1.563 3.504 3.492 3.508l2.842 7e-3 9e-3 -3.639c1e-3 -0.586 0.432-1.261 0.964-1.508l4.026-1.874c0.203-0.164 0.443-0.282 0.71-0.33l7e-3 -4e-3v3e-3c0.091-0.016 0.183-0.028 0.278-0.028l3.622 9e-3c0.875 2e-3 1.589 0.719 1.587 1.594z" />
  </g>
  <g id="g574" transform="matrix(.35278 0 0 -.35278 110.7 109.18)">
   <path id="path576" d="m0 0 2e-3 -0.845c0-0.116 0.096-0.211 0.213-0.211l2.313 5e-3c0.118 1e-3 0.212 0.096 0.212 0.213l-2e-3 0.844c-1e-3 0.118-0.095 0.212-0.213 0.212l-2.313-6e-3c-0.117 0-0.212-0.095-0.212-0.212" fill="currentColor"/>
  </g>
  <g id="g578" transform="matrix(.35278 0 0 -.35278 110.7 108.14)">
   <path id="path580" d="m0 0 2e-3 -0.844c0-0.117 0.096-0.212 0.213-0.212l2.313 6e-3c0.118 0 0.212 0.095 0.211 0.212l-2e-3 0.844c0 0.118-0.094 0.212-0.212 0.212l-2.313-6e-3c-0.117 0-0.212-0.095-0.212-0.212" fill="currentColor"/>
  </g>
  <g id="g582" transform="matrix(.35278 0 0 -.35278 110.69 107.1)">
   <path id="path584" d="m0 0 2e-3 -0.845c0-0.116 0.096-0.211 0.213-0.211l2.313 5e-3c0.118 1e-3 0.212 0.096 0.211 0.213l-2e-3 0.844c0 0.118-0.094 0.212-0.212 0.212l-2.313-6e-3c-0.117 0-0.212-0.095-0.212-0.212" fill="currentColor"/>
  </g>
  <g id="g714" transform="matrix(.35278 0 0 -.35278 108.1 106.16)">
   <path id="path716" d="m0 0c0.194-1.93 0.24-3.861 0.25-5.792-9e-3 -1.93-0.054-3.861-0.25-5.791-0.196 1.93-0.241 3.861-0.25 5.791 0.01 1.931 0.056 3.862 0.25 5.792" fill="currentColor"/>
  </g>
 </g>
</svg>
