<svg id="icon" stroke="none" xmlns="http://www.w3.org/2000/svg" viewBox="0 0 6.2594323 11.452019">
 <g transform="translate(-195.29 -523.78)">
  <g transform="translate(191.41 525.1)">
   <g transform="translate(-100.86,-105.08)">
    <g transform="matrix(0 .35278 .35278 0 110.44 111.01)">
     <path fill="currentColor" d="m0 0c-0.002 0.875-0.719 1.589-1.594 1.586l-3.622-0.008c-0.096 0-0.187-0.013-0.278-0.029l-0.001 0.029-0.091-0.049c-0.257-0.063-0.487-0.189-0.678-0.36l-3.985-2.112c-0.518-0.274-0.936-0.972-0.935-1.557l0.007-2.681-2.843-0.006c-3.583-0.009-6.492-2.932-6.484-6.512v-2.7119c0-0.828 0.672-1.5 1.5-1.5s1.5 0.672 1.5 1.5v2.7149c-0.004 1.93 1.563 3.504 3.492 3.508l2.842 0.007 0.009-3.639c0.001-0.586 0.432-1.261 0.964-1.508l4.026-1.874c0.203-0.164 0.443-0.282 0.71-0.33l0.007-0.004v0.003c0.091-0.016 0.183-0.028 0.278-0.028l3.622 0.009c0.875 0.002 1.589 0.719 1.587 1.594z"/>
    </g>
    <g transform="matrix(0 .35278 .35278 0 109.61 114.87)">
     <path fill="#aaa" d="m0 0 0.653 0.001c0.114 0 0.193-0.08 0.231-0.18h0.022l-0.231 0.594c-0.031 0.082-0.128 0.149-0.216 0.149h-0.726l0.001-0.3c0-0.146 0.12-0.264 0.266-0.264"/>
    </g>
    <g transform="matrix(0 .35278 .35278 0 109.96 114.76)">
     <path fill="#aaa" d="m0 0-0.227 0.581c-0.031 0.082-0.127 0.148-0.215 0.148l-10.378 0.002c-0.088 0-0.184-0.067-0.213-0.15l-0.185-0.294 10.737 0.025c0.214 0.001 0.398-0.128 0.481-0.312"/>
    </g>
    <g transform="matrix(0 .35278 .35278 0 109.52 115.2)">
     <path fill="#ddd" d="m0 0c0 0.033-0.023 0.055-0.035 0.084-0.038 0.101-0.117 0.181-0.231 0.181l-0.653-0.002c-0.146 0-0.266 0.118-0.266 0.264l-0.001 0.301v0.212c-0.001 0.078-0.019 0.15-0.049 0.216-0.083 0.184-0.267 0.313-0.482 0.312l-10.736-0.025-0.987-0.002c-0.292 0-0.53-0.239-0.529-0.531l0.028-11.838c0.001-0.293 0.239-0.53 0.531-0.529l11.723 0.027c0.292 0.001 0.53 0.239 0.529 0.532l-0.001 0.512c0 0.146 0.118 0.265 0.264 0.266l0.654 0.001c0.146 0 0.264 0.12 0.264 0.266z"/>
    </g>
    <g transform="matrix(0 .35278 .35278 0 108.86 111.37)">
     <path fill="currentColor" d="m0 0 0.014-6.092c0.001-0.292 0.24-0.53 0.531-0.529l1.48 0.003c0.292 0.001 0.53 0.24 0.53 0.532l-0.015 6.092c-0.001 0.292-0.24 0.53-0.531 0.529l-1.481-0.003c-0.292-0.001-0.529-0.24-0.528-0.532"/>
    </g>
    <path d="m110.23 110.99c0.30868-0.00071 0.56057-0.25365 0.55951-0.56233l-0.003-1.2778c0-0.0339-0.005-0.066-0.0102-0.0981l0.0102-0.00036-0.0173-0.0321c-0.0222-0.0907-0.0667-0.1718-0.127-0.23918l-0.74507-1.4058c-0.0967-0.18274-0.3429-0.3302-0.54928-0.32985l-0.9458 0.002-0.002-1.003c-0.003-1.264-1.0344-2.2902-2.2973-2.2874h-0.70418c-0.2921 0-0.52917 0.23707-0.52917 0.52917s0.23707 0.52917 0.52917 0.52917h0.70524c0.68086-0.001 1.2361 0.55139 1.2376 1.2319l0.002 1.0026-1.2838 0.003c-0.20673 0.00036-0.44486 0.1524-0.53199 0.34008l-0.66111 1.4203c-0.0579 0.0716-0.0995 0.15629-0.11642 0.25048l-0.001 0.002h0.001c-0.006 0.0321-0.01 0.0646-0.01 0.0981l0.003 1.2778c0.0007 0.30868 0.25364 0.56057 0.56233 0.55986z"/>
    <g transform="matrix(0 .35278 .35278 0 106.9 113.59)">
     <path fill="currentColor" d="m0 0 0.002-0.845c0-0.116 0.096-0.211 0.213-0.211l2.313 0.005c0.118 0.001 0.212 0.096 0.212 0.213l-0.002 0.844c-0.001 0.118-0.095 0.212-0.213 0.212l-2.313-0.006c-0.117 0-0.212-0.095-0.212-0.212"/>
    </g>
    <g transform="matrix(0 .35278 .35278 0 107.94 113.59)">
     <path fill="currentColor" d="m0 0 0.002-0.844c0-0.117 0.096-0.212 0.213-0.212l2.313 0.006c0.118 0 0.212 0.095 0.211 0.212l-0.002 0.844c0 0.118-0.094 0.212-0.212 0.212l-2.313-0.006c-0.117 0-0.212-0.095-0.212-0.212"/>
    </g>
    <g transform="matrix(0 .35278 .35278 0 108.98 113.58)">
     <path fill="currentColor" d="m0 0 0.002-0.845c0-0.116 0.096-0.211 0.213-0.211l2.313 0.005c0.118 0.001 0.212 0.096 0.211 0.213l-0.002 0.844c0 0.118-0.094 0.212-0.212 0.212l-2.313-0.006c-0.117 0-0.212-0.095-0.212-0.212"/>
    </g>
    <g transform="matrix(0 .35278 .35278 0 109.92 110.99)">
     <path fill="currentColor" d="m0 0c0.194-1.93 0.24-3.861 0.25-5.792-0.009-1.93-0.054-3.861-0.25-5.791-0.196 1.93-0.241 3.861-0.25 5.791 0.01 1.931 0.056 3.862 0.25 5.792"/>
    </g>
   </g>
  </g>
 </g>
</svg>
